<svg width="331" height="343" viewBox="0 0 331 343" fill="none" xmlns="http://www.w3.org/2000/svg">
<circle cx="166.472" cy="101.488" r="61.4879" fill="white"/>
<circle cx="248.456" cy="128.816" r="61.4879" fill="white"/>
<circle cx="84.4879" cy="128.816" r="61.4879" fill="white"/>
<path d="M85.2465 143.239H249.214C249.214 143.239 269.71 241.923 249.214 226.741C228.719 211.559 105.742 209.281 85.2465 226.741C64.7506 244.2 85.2465 143.239 85.2465 143.239Z" fill="white"/>
<path d="M145.217 259.383C143.698 252.045 138.233 237.368 128.516 237.368C121.111 237.368 115.117 244.422 111.566 250.273M94.3563 250.273C99.6701 255.587 107.261 259.383 108.02 257.864C108.779 256.346 109.292 254.019 111.566 250.273M111.566 250.273C108.613 249.008 102.251 245.567 100.429 241.923" stroke="white" stroke-width="4"/>
<path d="M186.968 259.383C188.486 252.045 193.951 237.368 203.668 237.368C211.073 237.368 217.067 244.422 220.618 250.273M237.828 250.273C232.514 255.587 224.923 259.383 224.164 257.864C223.405 256.346 222.892 254.019 220.618 250.273M220.618 250.273C223.571 249.008 229.933 245.567 231.755 241.923" stroke="white" stroke-width="4"/>
<path d="M190.846 286.115C189.331 286.115 143.886 285.747 143.129 286.115C142.372 286.482 142.675 302.652 168.124 302.652C193.573 302.652 192.361 286.115 190.846 286.115Z" stroke="white" stroke-width="4"/>
</svg>
