<?xml version="1.0" encoding="utf-8"?>
<!-- Generator: Adobe Illustrator 27.1.1, SVG Export Plug-In . SVG Version: 6.00 Build 0)  -->
<svg version="1.1" id="Layer_1" xmlns="http://www.w3.org/2000/svg" xmlns:xlink="http://www.w3.org/1999/xlink" x="0px" y="0px"
	 viewBox="0 0 500 500" style="enable-background:new 0 0 500 500;" xml:space="preserve">
<style type="text/css">
	.st0{fill:#D1D1D1;}
</style>
<g>
	<path class="st0" d="M258.75,31.75l50.12,154.25c1.16,3.57,4.49,5.99,8.25,5.99h162.19c8.4,0,11.9,10.75,5.1,15.69l-131.22,95.33
		c-3.04,2.21-4.31,6.12-3.15,9.7l50.12,154.25c2.6,7.99-6.55,14.64-13.35,9.7L255.6,381.34c-3.04-2.21-7.16-2.21-10.2,0
		l-131.22,95.33c-6.8,4.94-15.94-1.71-13.35-9.7l50.12-154.25c1.16-3.57-0.11-7.49-3.15-9.7L16.59,207.69
		c-6.8-4.94-3.3-15.69,5.1-15.69h162.19c3.76,0,7.09-2.42,8.25-5.99l50.12-154.25C244.85,23.76,256.15,23.76,258.75,31.75z" style="fill: #FFAE42;"/>
</g>
</svg>
